<?xml version="1.0" standalone="no"?>
<svg xmlns="http://www.w3.org/2000/svg" viewBox="0 0 104.034 120.128" width="104.034" height="120.128"><polygon fill="#84A59D" points="104.034,30.032 104.034,90.096 52.017,120.128 0,90.096 0,30.032 52.017,0"></polygon><path fill="white" fill-rule="nonzero" d="M6.10 23.13L6.10 23.13Q3.70 23.13 2.37 22.12Q1.04 21.11 0.52 19.40Q0 17.70 0 15.60L0 15.60L0 7.59Q0 5.29 0.52 3.58Q1.04 1.88 2.37 0.94Q3.70 0 6.10 0L6.10 0Q8.23 0 9.48 0.78Q10.72 1.57 11.27 3.02Q11.82 4.48 11.82 6.52L11.82 6.52L11.82 8.32L8.82 8.32L8.82 6.72Q8.82 5.46 8.69 4.49Q8.57 3.53 8.01 3.00Q7.45 2.46 6.13 2.46L6.13 2.46Q4.79 2.46 4.17 3.04Q3.56 3.61 3.37 4.66Q3.19 5.71 3.19 7.11L3.19 7.11L3.19 16.10Q3.19 17.81 3.47 18.80Q3.75 19.80 4.40 20.22Q5.04 20.64 6.13 20.64L6.13 20.64Q7.42 20.64 7.98 20.06Q8.54 19.49 8.68 18.48Q8.82 17.47 8.82 16.13L8.82 16.13L8.82 14.45L11.82 14.45L11.82 16.13Q11.82 18.20 11.31 19.78Q10.81 21.36 9.58 22.25Q8.34 23.13 6.10 23.13ZM19.60 23.13L19.60 23.13Q18.06 23.13 16.95 22.47Q15.85 21.81 15.27 20.66Q14.70 19.52 14.70 18.03L14.70 18.03Q14.70 15.88 15.67 14.29Q16.63 12.71 18.00 11.48L18.00 11.48Q17.50 10.47 16.93 9.45Q16.35 8.43 15.95 7.32Q15.54 6.22 15.54 5.01L15.54 5.01Q15.54 3.50 16.13 2.38Q16.72 1.26 17.81 0.63Q18.90 0 20.38 0L20.38 0Q21.76 0 22.83 0.50Q23.91 1.01 24.56 1.95Q25.20 2.88 25.20 4.20L25.20 4.20Q25.20 5.68 24.51 7.04Q23.83 8.40 22.85 9.56Q21.87 10.72 20.94 11.62L20.94 11.62L24.36 17.00Q24.67 16.41 24.88 15.67Q25.09 14.92 25.24 14.08Q25.40 13.24 25.48 12.46L25.48 12.46L28.45 12.46Q28.45 13.55 28.13 14.76Q27.80 15.96 27.30 17.04Q26.80 18.12 26.26 18.87L26.26 18.87Q26.63 19.32 27.22 19.67Q27.80 20.02 28.48 20.02L28.48 20.02L28.48 23.10Q28.36 23.10 28.27 23.10Q28.17 23.10 28.08 23.10L28.08 23.10Q27.27 23.07 26.63 22.72Q25.98 22.37 25.47 21.87Q24.95 21.36 24.47 20.92L24.47 20.92Q23.72 21.87 22.50 22.50Q21.28 23.13 19.60 23.13ZM19.60 20.64L19.60 20.64Q20.66 20.64 21.39 20.12Q22.12 19.60 22.65 18.96L22.65 18.96L19.18 13.61Q18.51 14.48 18.10 15.64Q17.70 16.80 17.70 18.03L17.70 18.03Q17.70 18.68 17.86 19.28Q18.03 19.88 18.45 20.26Q18.87 20.64 19.60 20.64ZM19.91 10.00L19.91 10.00Q20.50 9.30 21.01 8.34Q21.53 7.39 21.87 6.31Q22.20 5.24 22.20 4.20L22.20 4.20Q22.20 3.39 21.70 2.93Q21.20 2.46 20.38 2.46L20.38 2.46Q19.38 2.46 18.96 3.25Q18.54 4.03 18.54 5.01L18.54 5.01Q18.54 6.30 18.97 7.57Q19.40 8.85 19.91 10.00ZM37.86 22.88L31.81 22.88L31.81 0.20L37.02 0.20Q38.56 0.20 39.69 0.53Q40.82 0.87 41.58 1.57Q42.34 2.27 42.70 3.35Q43.06 4.42 43.06 5.88L43.06 5.88Q43.06 7.28 42.71 8.30Q42.36 9.32 41.65 9.91Q40.94 10.50 39.82 10.67L39.82 10.67Q41.19 10.98 42.03 11.72Q42.87 12.46 43.27 13.62Q43.68 14.78 43.68 16.41L43.68 16.41Q43.68 17.86 43.34 19.07Q43.01 20.27 42.29 21.11Q41.58 21.95 40.47 22.41Q39.37 22.88 37.86 22.88L37.86 22.88ZM34.97 12.07L34.97 20.61L37.10 20.61Q39.23 20.61 39.94 19.61Q40.66 18.62 40.66 16.41L40.66 16.41Q40.66 14.98 40.28 14.01Q39.90 13.05 39.07 12.56Q38.25 12.07 36.85 12.07L36.85 12.07L34.97 12.07ZM34.97 2.55L34.97 9.66L36.85 9.66Q38.19 9.66 38.95 9.28Q39.70 8.90 40.01 8.06Q40.32 7.22 40.32 5.88L40.32 5.88Q40.32 4.31 39.84 3.61Q39.37 2.91 38.36 2.73Q37.35 2.55 35.73 2.55L35.73 2.55L34.97 2.55Z" transform="translate(30.178, 23.5)"></path><g fill="white" color="white" transform="translate(30.017000000000003 54.628) scale(0.44)"><svg width="100.0" height="100.0" x="0.0" y="0.0" viewBox="0 0 100 100"><path d="M80.892,60.816h-8.114c-1.425,0-2.579-1.154-2.579-2.579V47.213c0-1.424,1.154-2.579,2.579-2.579h7.959  c0.969,0,1.876,0.378,2.557,1.064c1.262,1.274,1.342,3.211,1.337,3.774v6.152c0.011,0.811-0.099,2.913-1.356,4.188  C82.634,60.459,81.788,60.816,80.892,60.816z M75.356,55.658h4.115v-5.865h-4.115V55.658z"></path><line x1="7.989" y1="95.604" x2="77.306" y2="95.604"></line><path d="M77.306,99.473H7.989c-2.137,0-3.869-1.732-3.869-3.869s1.732-3.869,3.869-3.869h69.316c2.137,0,3.869,1.732,3.869,3.869  S79.442,99.473,77.306,99.473z"></path><path d="M95.602,60.175v-10.66c0-1.764,0.007-4.65,0.017-6.414c0.004-0.876-0.181-3.925-2.741-6.499  c-1.395-1.401-3.939-3.071-8.142-3.071h-34.64c1.161-1.378,2.104-2.934,2.709-4.599c2.077-5.712,0.137-11.614-5.324-16.192  c-4.351-3.648-2.615-8.114-2.417-8.58c0.454-0.998,0.368-2.158-0.225-3.079c-0.594-0.921-1.615-1.478-2.71-1.478  c-6.006,0-10.919,3.326-12.822,8.681c-1.89,5.316-0.267,11.243,4.038,14.745c2.795,2.275,4.31,4.546,4.501,6.749  c0.155,1.791-0.608,3.161-1.014,3.752H16.84c-5.334,0-9.673,4.339-9.673,9.673v28.635c0,2.25,0.377,5.604,0.877,7.8  c0.833,3.654,4.961,9.836,15.156,9.836c1.41-0.001,5.363-0.001,10.218-0.001l19.06,0.001h7.631c8.202,0,12.197-4.56,12.914-5.474  c1.982-2.525,3.368-6.531,3.368-9.742v-2.324h8.946c3.056,0,5.771-1.173,7.649-3.301C95.661,65.602,95.709,61.723,95.602,60.175z   M37.415,18.028c-2.534-2.061-2.846-5.294-2.032-7.584c0.297-0.837,1.048-2.377,2.749-3.393c0.051,3.358,1.284,7.343,5.207,10.631  c2.341,1.963,4.833,5.125,3.406,9.046c-0.502,1.381-1.384,2.6-2.429,3.575c0.001-0.294-0.009-0.596-0.031-0.903  C43.992,25.326,41.681,21.5,37.415,18.028z M85.337,65.485c-4.449,0-12.171,0-12.171,0c-1.774,0-3.226,1.451-3.226,3.225v5.549  c0,1.773-0.896,4.366-1.99,5.761c0,0-2.36,3.007-7.842,3.007c-3.654,0-16.978-0.001-26.691-0.001c-4.857,0-8.812,0-10.203,0.001  c-0.006,0-0.01,0-0.015,0c-7.77,0-8.868-4.819-8.868-4.819c-0.394-1.729-0.716-4.595-0.716-6.368V43.204  c0-1.773,1.451-3.225,3.225-3.225c0,0,64.86,0,67.896,0c4.449,0,4.435,3.087,4.435,3.087c-0.01,1.773-0.017,4.675-0.017,6.448  c0,0,0,10.937,0,10.936C89.153,60.45,89.786,65.485,85.337,65.485z"></path></svg></g></svg>