<?xml version="1.0" standalone="no"?>
<svg xmlns="http://www.w3.org/2000/svg" viewBox="0 0 128 69" width="128" height="69"><g fill="#ffffff" color="#ffffff" transform="translate(46.016 0) scale(0.35) "><svg width="100.0" height="100.0" x="0.0" y="0.0" viewBox="0 0 100 100"><path d="M80.892,60.816h-8.114c-1.425,0-2.579-1.154-2.579-2.579V47.213c0-1.424,1.154-2.579,2.579-2.579h7.959  c0.969,0,1.876,0.378,2.557,1.064c1.262,1.274,1.342,3.211,1.337,3.774v6.152c0.011,0.811-0.099,2.913-1.356,4.188  C82.634,60.459,81.788,60.816,80.892,60.816z M75.356,55.658h4.115v-5.865h-4.115V55.658z"></path><line x1="7.989" y1="95.604" x2="77.306" y2="95.604"></line><path d="M77.306,99.473H7.989c-2.137,0-3.869-1.732-3.869-3.869s1.732-3.869,3.869-3.869h69.316c2.137,0,3.869,1.732,3.869,3.869  S79.442,99.473,77.306,99.473z"></path><path d="M95.602,60.175v-10.66c0-1.764,0.007-4.65,0.017-6.414c0.004-0.876-0.181-3.925-2.741-6.499  c-1.395-1.401-3.939-3.071-8.142-3.071h-34.64c1.161-1.378,2.104-2.934,2.709-4.599c2.077-5.712,0.137-11.614-5.324-16.192  c-4.351-3.648-2.615-8.114-2.417-8.58c0.454-0.998,0.368-2.158-0.225-3.079c-0.594-0.921-1.615-1.478-2.71-1.478  c-6.006,0-10.919,3.326-12.822,8.681c-1.89,5.316-0.267,11.243,4.038,14.745c2.795,2.275,4.31,4.546,4.501,6.749  c0.155,1.791-0.608,3.161-1.014,3.752H16.84c-5.334,0-9.673,4.339-9.673,9.673v28.635c0,2.25,0.377,5.604,0.877,7.8  c0.833,3.654,4.961,9.836,15.156,9.836c1.41-0.001,5.363-0.001,10.218-0.001l19.06,0.001h7.631c8.202,0,12.197-4.56,12.914-5.474  c1.982-2.525,3.368-6.531,3.368-9.742v-2.324h8.946c3.056,0,5.771-1.173,7.649-3.301C95.661,65.602,95.709,61.723,95.602,60.175z   M37.415,18.028c-2.534-2.061-2.846-5.294-2.032-7.584c0.297-0.837,1.048-2.377,2.749-3.393c0.051,3.358,1.284,7.343,5.207,10.631  c2.341,1.963,4.833,5.125,3.406,9.046c-0.502,1.381-1.384,2.6-2.429,3.575c0.001-0.294-0.009-0.596-0.031-0.903  C43.992,25.326,41.681,21.5,37.415,18.028z M85.337,65.485c-4.449,0-12.171,0-12.171,0c-1.774,0-3.226,1.451-3.226,3.225v5.549  c0,1.773-0.896,4.366-1.99,5.761c0,0-2.36,3.007-7.842,3.007c-3.654,0-16.978-0.001-26.691-0.001c-4.857,0-8.812,0-10.203,0.001  c-0.006,0-0.01,0-0.015,0c-7.77,0-8.868-4.819-8.868-4.819c-0.394-1.729-0.716-4.595-0.716-6.368V43.204  c0-1.773,1.451-3.225,3.225-3.225c0,0,64.86,0,67.896,0c4.449,0,4.435,3.087,4.435,3.087c-0.01,1.773-0.017,4.675-0.017,6.448  c0,0,0,10.937,0,10.936C89.153,60.45,89.786,65.485,85.337,65.485z"></path></svg></g><line x1="47.065625" y1="41" x2="79.96562499999999" y2="41" stroke="#ffffff" stroke-linecap="round"></line><path fill="#ffffff" fill-rule="nonzero" d="M4.86 21.69L4.86 21.69Q4.39 21.69 3.85 21.62Q3.30 21.54 2.76 21.29Q2.21 21.05 1.72 20.60Q1.22 20.14 0.84 19.41Q0.46 18.67 0.23 17.58Q0 16.50 0 15L0 15L0 7.91Q0 6.40 0.23 5.33Q0.47 4.25 0.86 3.52Q1.24 2.79 1.75 2.36Q2.25 1.92 2.79 1.69Q3.33 1.46 3.86 1.39Q4.39 1.32 4.85 1.32L4.85 1.32Q6.05 1.32 6.85 1.66Q7.65 1.99 8.14 2.57Q8.63 3.15 8.83 3.93Q9.04 4.70 9.04 5.57L9.04 5.57Q9.04 6.21 8.97 6.76Q8.91 7.30 8.78 7.96L8.78 7.96L6.32 7.96L6.32 6.94Q6.32 5.29 5.95 4.46Q5.59 3.64 4.89 3.64L4.89 3.64Q4.46 3.64 4.15 3.81Q3.83 3.97 3.62 4.37Q3.41 4.76 3.30 5.40Q3.19 6.05 3.19 7.01L3.19 7.01L3.19 16.15Q3.19 17.09 3.28 17.71Q3.36 18.33 3.56 18.70Q3.76 19.08 4.08 19.24Q4.41 19.39 4.86 19.39L4.86 19.39Q5.16 19.39 5.43 19.26Q5.70 19.13 5.90 18.84Q6.11 18.55 6.23 18.11Q6.35 17.67 6.35 17.07L6.35 17.07L6.35 15.12L9.13 15.12L9.13 16.97Q9.13 19.38 8.03 20.53Q6.93 21.68 4.86 21.69ZM15.40 21.69L15.40 21.69Q14.88 21.69 14.35 21.61Q13.82 21.53 13.32 21.27Q12.82 21.01 12.38 20.53Q11.94 20.05 11.61 19.27Q11.29 18.48 11.10 17.33Q10.91 16.18 10.91 14.59L10.91 14.59L10.91 12.06Q10.91 10.49 11.10 9.37Q11.30 8.25 11.63 7.49Q11.96 6.73 12.41 6.28Q12.86 5.82 13.35 5.58Q13.85 5.34 14.38 5.27Q14.91 5.19 15.41 5.19L15.41 5.19Q15.89 5.19 16.41 5.26Q16.92 5.33 17.41 5.56Q17.91 5.79 18.35 6.24Q18.79 6.69 19.12 7.45Q19.45 8.21 19.65 9.35Q19.84 10.48 19.84 12.06L19.84 12.06L19.84 14.59Q19.84 16.16 19.64 17.30Q19.44 18.43 19.10 19.22Q18.76 20.00 18.32 20.49Q17.87 20.98 17.38 21.25Q16.89 21.52 16.38 21.60Q15.87 21.69 15.40 21.69ZM15.42 19.41L15.42 19.41Q15.82 19.41 16.10 19.20Q16.37 19.00 16.54 18.53Q16.71 18.06 16.79 17.29Q16.86 16.52 16.86 15.39L16.86 15.39L16.86 11.41Q16.86 10.28 16.79 9.50Q16.71 8.73 16.54 8.26Q16.37 7.78 16.10 7.57Q15.82 7.36 15.42 7.36L15.42 7.36Q15 7.36 14.71 7.57Q14.43 7.78 14.24 8.26Q14.05 8.73 13.97 9.50Q13.89 10.28 13.89 11.41L13.89 11.41L13.89 15.39Q13.89 16.52 13.97 17.29Q14.05 18.06 14.24 18.53Q14.43 19.00 14.71 19.20Q15 19.41 15.42 19.41ZM22.86 21.52L22.86 7.49L21.47 7.49L21.47 5.38L22.86 5.38L22.86 4.22Q22.86 2.91 23.13 2.08Q23.40 1.25 23.88 0.79Q24.35 0.33 24.99 0.16Q25.63 0 26.37 0L26.37 0Q26.58 0 26.84 0.02Q27.11 0.05 27.37 0.10Q27.63 0.15 27.88 0.22Q28.14 0.29 28.34 0.40L28.34 0.40L28.34 2.48Q27.84 2.36 27.23 2.36L27.23 2.36Q26.94 2.36 26.68 2.45Q26.41 2.54 26.21 2.76Q26.02 2.98 25.90 3.33Q25.78 3.69 25.78 4.22L25.78 4.22L25.78 5.38L28.02 5.38L28.02 7.49L25.78 7.49L25.78 21.52L22.86 21.52ZM30.08 21.52L30.08 7.49L28.69 7.49L28.69 5.38L30.08 5.38L30.08 4.22Q30.08 2.91 30.35 2.08Q30.62 1.25 31.10 0.79Q31.57 0.33 32.21 0.16Q32.85 0 33.59 0L33.59 0Q33.80 0 34.06 0.02Q34.32 0.05 34.59 0.10Q34.85 0.15 35.10 0.22Q35.36 0.29 35.55 0.40L35.55 0.40L35.55 2.48Q35.06 2.36 34.45 2.36L34.45 2.36Q34.16 2.36 33.90 2.45Q33.63 2.54 33.43 2.76Q33.23 2.98 33.12 3.33Q33 3.69 33 4.22L33 4.22L33 5.38L35.24 5.38L35.24 7.49L33 7.49L33 21.52L30.08 21.52ZM40.79 21.69L40.79 21.69Q39.75 21.69 38.95 21.30Q38.14 20.92 37.59 20.10Q37.04 19.28 36.76 17.99Q36.48 16.71 36.48 14.91L36.48 14.91L36.48 11.86Q36.48 10.32 36.71 9.23Q36.94 8.13 37.31 7.39Q37.68 6.64 38.16 6.21Q38.65 5.78 39.16 5.55Q39.68 5.32 40.19 5.26Q40.70 5.19 41.13 5.19L41.13 5.19Q41.93 5.19 42.67 5.43Q43.41 5.67 43.97 6.25Q44.53 6.83 44.87 7.80Q45.20 8.78 45.20 10.23L45.20 10.23Q45.20 10.72 45.17 11.23Q45.14 11.73 45.09 12.22Q45.05 12.70 44.97 13.16Q44.89 13.62 44.81 14.00L44.81 14.00L39.46 14.00L39.46 15.64Q39.46 16.70 39.54 17.42Q39.62 18.14 39.81 18.58Q40.01 19.02 40.34 19.21Q40.68 19.41 41.18 19.41L41.18 19.41Q41.45 19.41 41.71 19.29Q41.96 19.18 42.16 18.93Q42.35 18.67 42.47 18.24Q42.59 17.81 42.59 17.18L42.59 17.18L42.59 16.68L45.06 16.68L45.06 17.30Q45.06 19.59 43.96 20.64Q42.87 21.69 40.79 21.69ZM39.46 12.01L42.43 12.01Q42.45 11.88 42.46 11.67Q42.47 11.45 42.47 11.21Q42.48 10.98 42.48 10.75Q42.48 10.52 42.48 10.36L42.48 10.36Q42.48 8.77 42.11 8.06Q41.73 7.36 40.99 7.36L40.99 7.36Q40.61 7.36 40.31 7.54Q40.02 7.72 39.83 8.15Q39.64 8.58 39.55 9.28Q39.46 9.98 39.46 11.03L39.46 11.03L39.46 12.01ZM51.60 21.69L51.60 21.69Q50.55 21.69 49.75 21.30Q48.95 20.92 48.40 20.10Q47.85 19.28 47.57 17.99Q47.29 16.71 47.29 14.91L47.29 14.91L47.29 11.86Q47.29 10.32 47.51 9.23Q47.74 8.13 48.11 7.39Q48.48 6.64 48.97 6.21Q49.45 5.78 49.97 5.55Q50.48 5.32 50.99 5.26Q51.50 5.19 51.94 5.19L51.94 5.19Q52.73 5.19 53.47 5.43Q54.21 5.67 54.77 6.25Q55.34 6.83 55.67 7.80Q56.00 8.78 56.00 10.23L56.00 10.23Q56.00 10.72 55.97 11.23Q55.95 11.73 55.90 12.22Q55.85 12.70 55.78 13.16Q55.70 13.62 55.62 14.00L55.62 14.00L50.26 14.00L50.26 15.64Q50.26 16.70 50.34 17.42Q50.43 18.14 50.62 18.58Q50.81 19.02 51.15 19.21Q51.48 19.41 51.98 19.41L51.98 19.41Q52.25 19.41 52.51 19.29Q52.77 19.18 52.96 18.93Q53.16 18.67 53.27 18.24Q53.39 17.81 53.39 17.18L53.39 17.18L53.39 16.68L55.86 16.68L55.86 17.30Q55.86 19.59 54.77 20.64Q53.67 21.69 51.60 21.69ZM50.26 12.01L53.24 12.01Q53.25 11.88 53.26 11.67Q53.27 11.45 53.28 11.21Q53.29 10.98 53.29 10.75Q53.29 10.52 53.29 10.36L53.29 10.36Q53.29 8.77 52.91 8.06Q52.54 7.36 51.80 7.36L51.80 7.36Q51.41 7.36 51.12 7.54Q50.82 7.72 50.64 8.15Q50.45 8.58 50.36 9.28Q50.26 9.98 50.26 11.03L50.26 11.03L50.26 12.01ZM62.77 16.71L62.77 16.71Q62.77 15.71 63.09 14.84Q63.42 13.96 63.89 13.21Q64.36 12.47 64.88 11.87Q65.40 11.26 65.79 10.82L65.79 10.82L66.11 10.48L65.71 9.76Q65.40 9.21 65.12 8.60Q64.84 7.99 64.62 7.35Q64.41 6.71 64.28 6.05Q64.15 5.39 64.15 4.73L64.15 4.73Q64.15 3.71 64.50 2.89Q64.85 2.07 65.45 1.50Q66.05 0.93 66.86 0.62Q67.66 0.30 68.58 0.30L68.58 0.30Q69.77 0.30 70.55 0.67Q71.33 1.03 71.79 1.58Q72.25 2.12 72.43 2.75Q72.61 3.38 72.61 3.91L72.61 3.91Q72.61 5.00 72.25 5.94Q71.89 6.87 71.40 7.63Q70.90 8.40 70.36 9.01Q69.82 9.61 69.46 10.03L69.46 10.03L69.20 10.32L72.22 15.82Q72.42 15.18 72.53 14.47Q72.64 13.77 72.64 13.03L72.64 13.03Q72.64 12.64 72.63 12.31Q72.62 11.98 72.60 11.66L72.60 11.66L75.05 11.66Q75.11 11.96 75.13 12.32Q75.16 12.68 75.16 13.03L75.16 13.03Q75.16 14.43 74.72 15.75Q74.29 17.07 73.54 18.20L73.54 18.20L75.36 21.50L72.22 21.50L71.57 20.33Q70.72 20.98 69.79 21.34Q68.85 21.70 67.88 21.70L67.88 21.70Q66.75 21.70 65.81 21.37Q64.88 21.04 64.20 20.40Q63.52 19.77 63.14 18.84Q62.77 17.91 62.77 16.71ZM68.11 8.33L68.31 8.12Q68.54 7.85 68.84 7.49Q69.14 7.13 69.41 6.67Q69.68 6.21 69.87 5.65Q70.05 5.09 70.05 4.43L70.05 4.43Q70.05 3.98 69.93 3.66Q69.81 3.33 69.60 3.12Q69.40 2.91 69.13 2.80Q68.87 2.70 68.58 2.70L68.58 2.70Q68.31 2.70 68.02 2.79Q67.72 2.89 67.48 3.13Q67.24 3.36 67.08 3.76Q66.93 4.15 66.93 4.73L66.93 4.73Q66.93 5.13 66.99 5.51Q67.05 5.89 67.20 6.32Q67.34 6.75 67.56 7.24Q67.79 7.72 68.11 8.33L68.11 8.33ZM65.78 16.30L65.78 16.30Q65.78 16.86 65.94 17.42Q66.09 17.98 66.43 18.42Q66.76 18.86 67.28 19.13Q67.80 19.41 68.52 19.41L68.52 19.41Q69.11 19.41 69.62 19.17Q70.13 18.94 70.56 18.52L70.56 18.52L67.23 12.52Q66.53 13.39 66.15 14.36Q65.78 15.33 65.78 16.30ZM83.16 21.52L83.16 1.50L86.23 1.50Q86.91 1.50 87.63 1.55Q88.36 1.59 89.05 1.75Q89.74 1.90 90.36 2.20Q90.98 2.50 91.45 3Q91.91 3.50 92.19 4.25Q92.46 4.99 92.46 6.04L92.46 6.04L92.46 7.01Q92.46 7.80 92.23 8.47Q92.00 9.14 91.63 9.65Q91.25 10.16 90.77 10.49Q90.29 10.83 89.79 10.95L89.79 10.95L89.79 11.04Q91.28 11.31 92.03 12.45Q92.79 13.59 92.79 15.38L92.79 15.38L92.79 16.39Q92.79 17.48 92.55 18.29Q92.31 19.09 91.88 19.66Q91.44 20.23 90.84 20.59Q90.25 20.95 89.53 21.16Q88.82 21.36 88.01 21.44Q87.20 21.52 86.34 21.52L86.34 21.52L83.16 21.52ZM86.13 10.07L86.72 10.07Q87.33 10.07 87.83 9.92Q88.34 9.77 88.69 9.46Q89.05 9.15 89.24 8.65Q89.44 8.16 89.44 7.45L89.44 7.45L89.44 6.63Q89.44 5.93 89.30 5.39Q89.16 4.85 88.83 4.48Q88.51 4.10 87.99 3.91Q87.47 3.71 86.72 3.71L86.72 3.71L86.13 3.71L86.13 10.07ZM86.13 19.41L87 19.41Q87.61 19.41 88.11 19.25Q88.61 19.09 88.96 18.76Q89.32 18.42 89.51 17.91Q89.71 17.39 89.71 16.69L89.71 16.69L89.71 15.13Q89.71 14.43 89.57 13.88Q89.43 13.34 89.10 12.97Q88.78 12.60 88.27 12.40Q87.75 12.21 87 12.21L87 12.21L86.13 12.21L86.13 19.41ZM99.30 21.69L99.30 21.69Q98.79 21.69 98.26 21.61Q97.72 21.53 97.22 21.27Q96.73 21.01 96.29 20.53Q95.85 20.05 95.52 19.27Q95.19 18.48 95.00 17.33Q94.82 16.18 94.82 14.59L94.82 14.59L94.82 12.06Q94.82 10.49 95.01 9.37Q95.20 8.25 95.54 7.49Q95.87 6.73 96.32 6.28Q96.76 5.82 97.26 5.58Q97.76 5.34 98.29 5.27Q98.81 5.19 99.32 5.19L99.32 5.19Q99.80 5.19 100.31 5.26Q100.83 5.33 101.32 5.56Q101.81 5.79 102.25 6.24Q102.69 6.69 103.03 7.45Q103.36 8.21 103.55 9.35Q103.75 10.48 103.75 12.06L103.75 12.06L103.75 14.59Q103.75 16.16 103.55 17.30Q103.35 18.43 103.01 19.22Q102.67 20.00 102.22 20.49Q101.78 20.98 101.29 21.25Q100.79 21.52 100.28 21.60Q99.77 21.69 99.30 21.69ZM99.33 19.41L99.33 19.41Q99.73 19.41 100.00 19.20Q100.28 19.00 100.45 18.53Q100.62 18.06 100.69 17.29Q100.77 16.52 100.77 15.39L100.77 15.39L100.77 11.41Q100.77 10.28 100.69 9.50Q100.62 8.73 100.45 8.26Q100.28 7.78 100.00 7.57Q99.73 7.36 99.33 7.36L99.33 7.36Q98.91 7.36 98.62 7.57Q98.33 7.78 98.14 8.26Q97.96 8.73 97.88 9.50Q97.79 10.28 97.79 11.41L97.79 11.41L97.79 15.39Q97.79 16.52 97.88 17.29Q97.96 18.06 98.14 18.53Q98.33 19.00 98.62 19.20Q98.91 19.41 99.33 19.41ZM110.44 21.69L110.44 21.69Q109.92 21.69 109.39 21.61Q108.86 21.53 108.36 21.27Q107.86 21.01 107.42 20.53Q106.98 20.05 106.65 19.27Q106.32 18.48 106.14 17.33Q105.95 16.18 105.95 14.59L105.95 14.59L105.95 12.06Q105.95 10.49 106.14 9.37Q106.34 8.25 106.67 7.49Q107.00 6.73 107.45 6.28Q107.89 5.82 108.39 5.58Q108.89 5.34 109.42 5.27Q109.95 5.19 110.45 5.19L110.45 5.19Q110.93 5.19 111.45 5.26Q111.96 5.33 112.45 5.56Q112.95 5.79 113.38 6.24Q113.82 6.69 114.16 7.45Q114.49 8.21 114.69 9.35Q114.88 10.48 114.88 12.06L114.88 12.06L114.88 14.59Q114.88 16.16 114.68 17.30Q114.48 18.43 114.14 19.22Q113.80 20.00 113.36 20.49Q112.91 20.98 112.42 21.25Q111.93 21.52 111.42 21.60Q110.91 21.69 110.44 21.69ZM110.46 19.41L110.46 19.41Q110.86 19.41 111.13 19.20Q111.41 19.00 111.58 18.53Q111.75 18.06 111.83 17.29Q111.90 16.52 111.90 15.39L111.90 15.39L111.90 11.41Q111.90 10.28 111.83 9.50Q111.75 8.73 111.58 8.26Q111.41 7.78 111.13 7.57Q110.86 7.36 110.46 7.36L110.46 7.36Q110.04 7.36 109.75 7.57Q109.46 7.78 109.28 8.26Q109.09 8.73 109.01 9.50Q108.93 10.28 108.93 11.41L108.93 11.41L108.93 15.39Q108.93 16.52 109.01 17.29Q109.09 18.06 109.28 18.53Q109.46 19.00 109.75 19.20Q110.04 19.41 110.46 19.41ZM117.55 21.52L117.55 0.20L120.52 0.20L120.52 12.47L120.61 12.47L123.84 5.38L126.69 5.38L123.11 12.76L127.03 21.52L124.01 21.52L120.61 13.51L120.52 13.51L120.52 21.52L117.55 21.52Z" transform="translate(0, 47)"></path></svg>