<?xml version="1.0" standalone="no"?>
<svg xmlns="http://www.w3.org/2000/svg" viewBox="0 0 105.625 121.965" width="105.625" height="121.965"><polygon fill="#F6BD60" points="105.625,30.49125 105.625,91.47375 52.8125,121.965 0,91.47375 0,30.49125 52.8125,0"></polygon><g fill="white" color="white" transform="translate(30.8125 22.5) scale(0.44)"><svg width="100.0" height="100.0" x="0.0" y="0.0" viewBox="0 0 100 100"><path d="M80.892,60.816h-8.114c-1.425,0-2.579-1.154-2.579-2.579V47.213c0-1.424,1.154-2.579,2.579-2.579h7.959  c0.969,0,1.876,0.378,2.557,1.064c1.262,1.274,1.342,3.211,1.337,3.774v6.152c0.011,0.811-0.099,2.913-1.356,4.188  C82.634,60.459,81.788,60.816,80.892,60.816z M75.356,55.658h4.115v-5.865h-4.115V55.658z"></path><line x1="7.989" y1="95.604" x2="77.306" y2="95.604"></line><path d="M77.306,99.473H7.989c-2.137,0-3.869-1.732-3.869-3.869s1.732-3.869,3.869-3.869h69.316c2.137,0,3.869,1.732,3.869,3.869  S79.442,99.473,77.306,99.473z"></path><path d="M95.602,60.175v-10.66c0-1.764,0.007-4.65,0.017-6.414c0.004-0.876-0.181-3.925-2.741-6.499  c-1.395-1.401-3.939-3.071-8.142-3.071h-34.64c1.161-1.378,2.104-2.934,2.709-4.599c2.077-5.712,0.137-11.614-5.324-16.192  c-4.351-3.648-2.615-8.114-2.417-8.58c0.454-0.998,0.368-2.158-0.225-3.079c-0.594-0.921-1.615-1.478-2.71-1.478  c-6.006,0-10.919,3.326-12.822,8.681c-1.89,5.316-0.267,11.243,4.038,14.745c2.795,2.275,4.31,4.546,4.501,6.749  c0.155,1.791-0.608,3.161-1.014,3.752H16.84c-5.334,0-9.673,4.339-9.673,9.673v28.635c0,2.25,0.377,5.604,0.877,7.8  c0.833,3.654,4.961,9.836,15.156,9.836c1.41-0.001,5.363-0.001,10.218-0.001l19.06,0.001h7.631c8.202,0,12.197-4.56,12.914-5.474  c1.982-2.525,3.368-6.531,3.368-9.742v-2.324h8.946c3.056,0,5.771-1.173,7.649-3.301C95.661,65.602,95.709,61.723,95.602,60.175z   M37.415,18.028c-2.534-2.061-2.846-5.294-2.032-7.584c0.297-0.837,1.048-2.377,2.749-3.393c0.051,3.358,1.284,7.343,5.207,10.631  c2.341,1.963,4.833,5.125,3.406,9.046c-0.502,1.381-1.384,2.6-2.429,3.575c0.001-0.294-0.009-0.596-0.031-0.903  C43.992,25.326,41.681,21.5,37.415,18.028z M85.337,65.485c-4.449,0-12.171,0-12.171,0c-1.774,0-3.226,1.451-3.226,3.225v5.549  c0,1.773-0.896,4.366-1.99,5.761c0,0-2.36,3.007-7.842,3.007c-3.654,0-16.978-0.001-26.691-0.001c-4.857,0-8.812,0-10.203,0.001  c-0.006,0-0.01,0-0.015,0c-7.77,0-8.868-4.819-8.868-4.819c-0.394-1.729-0.716-4.595-0.716-6.368V43.204  c0-1.773,1.451-3.225,3.225-3.225c0,0,64.86,0,67.896,0c4.449,0,4.435,3.087,4.435,3.087c-0.01,1.773-0.017,4.675-0.017,6.448  c0,0,0,10.937,0,10.936C89.153,60.45,89.786,65.485,85.337,65.485z"></path></svg></g><path fill="white" fill-rule="nonzero" d="M5.67 24.95L5.67 24.95Q5.13 24.95 4.49 24.86Q3.86 24.77 3.22 24.49Q2.58 24.20 2.00 23.67Q1.42 23.15 0.98 22.29Q0.53 21.42 0.27 20.16Q0 18.89 0 17.14L0 17.14L0 8.87Q0 7.11 0.27 5.86Q0.55 4.61 1.00 3.75Q1.45 2.90 2.04 2.39Q2.63 1.89 3.25 1.62Q3.88 1.35 4.50 1.27Q5.13 1.19 5.66 1.19L5.66 1.19Q7.05 1.19 7.99 1.58Q8.93 1.97 9.50 2.65Q10.06 3.32 10.30 4.22Q10.54 5.13 10.54 6.14L10.54 6.14Q10.54 6.89 10.47 7.53Q10.39 8.16 10.24 8.93L10.24 8.93L7.37 8.93L7.37 7.74Q7.37 5.81 6.95 4.85Q6.52 3.90 5.70 3.90L5.70 3.90Q5.21 3.90 4.84 4.09Q4.47 4.28 4.22 4.74Q3.98 5.20 3.85 5.95Q3.72 6.70 3.72 7.82L3.72 7.82L3.72 18.48Q3.72 19.58 3.82 20.30Q3.92 21.03 4.16 21.46Q4.39 21.90 4.76 22.09Q5.14 22.27 5.67 22.27L5.67 22.27Q6.02 22.27 6.33 22.11Q6.64 21.96 6.88 21.62Q7.12 21.29 7.27 20.77Q7.41 20.26 7.41 19.56L7.41 19.56L7.41 17.28L10.65 17.28L10.65 19.44Q10.65 22.26 9.37 23.60Q8.08 24.94 5.67 24.95ZM12.20 19.14L12.20 19.14Q12.20 17.98 12.58 16.95Q12.96 15.93 13.51 15.06Q14.05 14.19 14.66 13.49Q15.27 12.78 15.72 12.26L15.72 12.26L16.09 11.87L15.63 11.03Q15.27 10.39 14.94 9.68Q14.62 8.97 14.36 8.22Q14.11 7.48 13.96 6.71Q13.81 5.93 13.81 5.17L13.81 5.17Q13.81 3.98 14.22 3.02Q14.63 2.06 15.33 1.39Q16.02 0.72 16.97 0.36Q17.91 0 18.98 0L18.98 0Q20.37 0 21.28 0.42Q22.19 0.85 22.72 1.48Q23.26 2.12 23.47 2.85Q23.68 3.58 23.68 4.21L23.68 4.21Q23.68 5.48 23.26 6.57Q22.85 7.66 22.26 8.55Q21.68 9.45 21.05 10.15Q20.43 10.86 20.00 11.35L20.00 11.35L19.70 11.69L23.23 18.10Q23.46 17.35 23.59 16.53Q23.72 15.71 23.72 14.85L23.72 14.85Q23.72 14.40 23.71 14.01Q23.69 13.62 23.67 13.25L23.67 13.25L26.52 13.25Q26.59 13.60 26.63 14.02Q26.66 14.44 26.66 14.85L26.66 14.85Q26.66 16.47 26.15 18.02Q25.63 19.56 24.76 20.88L24.76 20.88L26.89 24.73L23.23 24.73L22.46 23.37Q21.48 24.12 20.38 24.54Q19.29 24.96 18.16 24.96L18.16 24.96Q16.84 24.96 15.75 24.58Q14.66 24.19 13.86 23.45Q13.07 22.71 12.63 21.62Q12.20 20.54 12.20 19.14ZM18.43 9.37L18.66 9.12Q18.94 8.80 19.28 8.38Q19.63 7.96 19.95 7.42Q20.26 6.89 20.48 6.23Q20.70 5.58 20.70 4.81L20.70 4.81Q20.70 4.29 20.56 3.91Q20.41 3.53 20.17 3.28Q19.93 3.04 19.63 2.91Q19.32 2.79 18.98 2.79L18.98 2.79Q18.66 2.79 18.32 2.91Q17.98 3.02 17.70 3.29Q17.42 3.57 17.23 4.03Q17.05 4.48 17.05 5.17L17.05 5.17Q17.05 5.63 17.12 6.08Q17.20 6.52 17.36 7.02Q17.53 7.52 17.79 8.09Q18.06 8.65 18.43 9.37L18.43 9.37ZM15.71 18.66L15.71 18.66Q15.71 19.32 15.89 19.97Q16.08 20.62 16.47 21.13Q16.86 21.64 17.47 21.96Q18.07 22.29 18.91 22.29L18.91 22.29Q19.59 22.29 20.19 22.01Q20.78 21.74 21.29 21.25L21.29 21.25L17.40 14.25Q16.58 15.27 16.15 16.40Q15.71 17.53 15.71 18.66ZM30.00 24.75L30.00 1.39L33.58 1.39Q34.37 1.39 35.22 1.45Q36.07 1.50 36.87 1.68Q37.68 1.86 38.40 2.21Q39.13 2.56 39.67 3.14Q40.21 3.73 40.53 4.60Q40.85 5.47 40.85 6.69L40.85 6.69L40.85 7.82Q40.85 8.75 40.58 9.53Q40.32 10.31 39.88 10.90Q39.44 11.50 38.88 11.89Q38.32 12.28 37.73 12.41L37.73 12.41L37.73 12.52Q39.47 12.84 40.35 14.17Q41.23 15.50 41.23 17.58L41.23 17.58L41.23 18.77Q41.23 20.04 40.95 20.98Q40.67 21.92 40.17 22.58Q39.66 23.24 38.96 23.67Q38.27 24.09 37.43 24.33Q36.60 24.57 35.66 24.66Q34.71 24.75 33.71 24.75L33.71 24.75L30.00 24.75ZM33.47 11.39L34.15 11.39Q34.86 11.39 35.45 11.22Q36.04 11.05 36.46 10.68Q36.87 10.32 37.10 9.74Q37.32 9.16 37.32 8.34L37.32 8.34L37.32 7.38Q37.32 6.56 37.16 5.93Q37.00 5.30 36.62 4.87Q36.24 4.43 35.64 4.20Q35.03 3.98 34.15 3.98L34.15 3.98L33.47 3.98L33.47 11.39ZM33.47 22.29L34.48 22.29Q35.19 22.29 35.77 22.10Q36.35 21.92 36.77 21.53Q37.19 21.14 37.41 20.54Q37.64 19.93 37.64 19.11L37.64 19.11L37.64 17.29Q37.64 16.47 37.47 15.84Q37.31 15.20 36.93 14.77Q36.56 14.34 35.96 14.12Q35.36 13.89 34.48 13.89L34.48 13.89L33.47 13.89L33.47 22.29Z" transform="translate(32.196, 74.5)"></path></svg>